<svg data-logo="logo" xmlns="http://www.w3.org/2000/svg" viewBox="0 0 339 42">
        <g style="opacity: 1;" id="logogram" transform="translate(0, 1) rotate(0)"><path d="M28.7089 33.1053L1.9434 14.6424C-0.768963 12.7715 0.15306 8.87601 3.53531 7.95996L31.9823 0.239132C32.5849 0.0216955 33.2306 -0.0488885 33.866 0.0332432C34.5013 0.115375 35.1079 0.34785 35.6355 0.711378C36.1629 1.07491 36.5961 1.559 36.899 2.12348C37.2018 2.68795 37.3658 3.31654 37.3771 3.95706L35.6912 30.1393C35.4913 33.247 31.4213 34.9762 28.7089 33.1053Z" fill="#E9327C"></path><path d="M20.2197 37.6632L4.45132 6.82618C4.09087 6.12072 3.93226 5.32941 3.99297 4.53953C4.05367 3.74965 4.33135 2.99187 4.79536 2.34978C5.25939 1.70769 5.89172 1.20622 6.62264 0.900668C7.35356 0.595117 8.15466 0.497365 8.93761 0.618198L38.1604 5.12834C38.8331 5.23219 39.4717 5.49425 40.0236 5.89298C40.5753 6.29172 41.0245 6.81572 41.3344 7.42191C41.6441 8.0281 41.8057 8.69917 41.8055 9.37994C41.8054 10.0607 41.6437 10.7317 41.3338 11.3378L27.8719 37.6647C27.5104 38.3681 26.962 38.9583 26.2869 39.3703C25.6118 39.7823 24.8363 40.0002 24.0454 40C23.2545 39.9999 22.479 39.7817 21.804 39.3695C21.1291 38.9571 20.5809 38.3668 20.2197 37.6632Z" fill="#1DACE3"></path><path d="M37.3055 4.9955L22.7382 2.74713L4.85269 7.60342L11.9917 21.5695L28.7089 33.1053C29.0777 33.357 29.4834 33.5497 29.9114 33.6767L36.2612 21.2592L37.3055 4.9955Z" fill="#001A49"></path></g>
        <g style="opacity: 1;" id="logotype" transform="translate(48, 8.5)"><path fill="#001A49" d="M29.03 24.13L25.99 25.35L23.26 18.35L11.92 18.35L9.19 25.28L6.35 24.13L15.94 0.50L19.58 0.50L29.03 24.13ZM17.59 3.79L12.96 15.55L22.17 15.55L17.59 3.79ZM34.53 25L31.38 25L31.38 0.50L35.79 0.50L46.60 20.87L46.60 0.50L49.75 0.50L49.75 25L45.41 25L34.53 4.77L34.53 25ZM63.93 25L60.60 25L60.60 15.69L52.10 1.86L54.90 0.18L62.39 12.61L69.74 0.32L72.36 1.86L63.93 15.69L63.93 25ZM87.20 25L84.05 25L84.05 0.50L88.71 0.50L95.50 16.00L102.18 0.50L106.94 0.50L106.94 25L103.62 25L103.62 4.73L97.07 19.47L93.78 19.47L87.20 4.73L87.20 25ZM122.23 25.42L122.23 25.42Q119.50 25.42 117.37 24.42Q115.23 23.43 113.75 21.69Q112.26 19.96 111.47 17.65Q110.69 15.34 110.69 12.71L110.69 12.71Q110.69 9.11 112.07 6.26Q113.45 3.40 116.04 1.74Q118.63 0.08 122.23 0.08L122.23 0.08Q124.93 0.08 127.08 1.06Q129.24 2.04 130.74 3.79Q132.25 5.54 133.03 7.81Q133.82 10.09 133.82 12.71L133.82 12.71Q133.82 15.34 133.03 17.65Q132.25 19.96 130.74 21.69Q129.24 23.43 127.10 24.42Q124.97 25.42 122.23 25.42ZM122.23 22.55L122.23 22.55Q124.93 22.55 126.75 21.25Q128.57 19.96 129.50 17.74Q130.43 15.51 130.43 12.71L130.43 12.71Q130.43 10.82 129.87 9.07Q129.31 7.32 128.25 5.94Q127.21 4.56 125.68 3.75Q124.16 2.95 122.23 2.95L122.23 2.95Q119.68 2.95 117.84 4.24Q116.00 5.54 115.04 7.74Q114.08 9.95 114.08 12.71L114.08 12.71Q114.08 14.60 114.62 16.37Q115.17 18.14 116.22 19.54Q117.27 20.94 118.79 21.75Q120.31 22.55 122.23 22.55ZM146.45 25L142.71 25L133.71 1.37L136.97 0.11L144.67 21.36L152.40 0.22L155.41 1.37L146.45 25ZM161.08 25L157.76 25L157.76 0.50L161.08 0.50L161.08 25ZM180.93 25L166.23 25L166.23 0.50L180.93 0.50L180.93 3.37L169.55 3.37L169.55 10.82L179.35 10.82L179.35 13.62L169.55 13.62L169.55 22.13L180.93 22.13L180.93 25ZM190.59 25.42L190.59 25.42Q188.03 25.42 185.94 24.74Q183.84 24.05 182.40 22.93L182.40 22.93L184.08 20.13Q185.34 21.18 186.91 21.85Q188.49 22.52 190.59 22.52L190.59 22.52Q193.11 22.52 194.58 21.46Q196.05 20.41 196.05 18.63L196.05 18.63Q196.05 17.61 195.63 16.83Q195.21 16.04 194.00 15.29Q192.79 14.53 190.45 13.66L190.45 13.66Q187.93 12.68 186.42 11.68Q184.92 10.68 184.27 9.41Q183.63 8.13 183.63 6.38L183.63 6.38Q183.63 4.63 184.59 3.21Q185.55 1.79 187.42 0.94Q189.29 0.08 191.95 0.08L191.95 0.08Q194.13 0.08 195.86 0.52Q197.59 0.95 199.23 1.76L199.23 1.76L198.01 4.59Q196.82 3.89 195.23 3.42Q193.63 2.95 191.88 2.95L191.88 2.95Q189.57 2.95 188.25 3.86Q186.91 4.77 186.91 6.20L186.91 6.20Q186.91 7.11 187.30 7.81Q187.69 8.51 188.82 9.18Q189.96 9.84 192.23 10.68L192.23 10.68Q194.97 11.70 196.56 12.82Q198.15 13.94 198.81 15.25Q199.48 16.56 199.48 18.24L199.48 18.24Q199.48 20.52 198.34 22.13Q197.20 23.74 195.19 24.58Q193.18 25.42 190.59 25.42ZM215.89 25L212.57 25L212.57 0.50L215.89 0.50L215.89 10.96L227.97 10.96L227.97 0.50L231.29 0.50L231.29 25L227.97 25L227.97 13.83L215.89 13.83L215.89 25ZM251.14 25L236.44 25L236.44 0.50L251.14 0.50L251.14 3.37L239.76 3.37L239.76 10.82L249.56 10.82L249.56 13.62L239.76 13.62L239.76 22.13L251.14 22.13L251.14 25ZM272.11 23.95L268.99 25.42L265.94 18.77Q264.79 16.28 263.04 15.23Q261.29 14.18 258.56 14.18L258.56 14.18L258.04 14.18L258.04 25L254.71 25L254.71 0.57Q256.56 0.39 258.26 0.31Q259.96 0.22 261.88 0.22L261.88 0.22Q266.37 0.22 268.62 2.04Q270.88 3.86 270.88 6.73L270.88 6.73Q270.88 9.28 269.36 10.84Q267.83 12.40 264.97 13.17L264.97 13.17Q265.91 13.59 266.64 14.17Q267.38 14.74 268.06 15.71Q268.75 16.67 269.44 18.21L269.44 18.21L272.11 23.95ZM258.04 3.16L258.04 11.38L261.88 11.38Q264.41 11.38 265.98 10.26Q267.56 9.14 267.56 7.04L267.56 7.04Q267.56 5.29 266.08 4.16Q264.62 3.02 261.88 3.02L261.88 3.02Q260.69 3.02 259.75 3.05Q258.81 3.09 258.04 3.16L258.04 3.16ZM289.85 25L275.15 25L275.15 0.50L289.85 0.50L289.85 3.37L278.48 3.37L278.48 10.82L288.28 10.82L288.28 13.62L278.48 13.62L278.48 22.13L289.85 22.13L289.85 25Z"></path></g>
        
      </svg>